<svg xmlns="http://www.w3.org/2000/svg" viewBox="0 0 50.625 100"><defs><style>.\36 36d617c-f1fb-4e17-952d-cb5f7685950c{fill:#e2dcdc;}</style></defs><title>Illu</title><g id="6edab40e-d022-4b90-af99-872f445ee9c6" data-name="Layer 2"><g id="862f7758-9ac0-4c11-b5b0-adfa0e3bcfa5" data-name="Illu"><path class="636d617c-f1fb-4e17-952d-cb5f7685950c" d="M24.714,100c.436-3.541.881-7.081,1.3-10.624q1.129-9.454,2.234-18.911c.106-.9.177-1.812.269-2.762l-4.449.759-.029-.161a33.711,33.711,0,0,0,3.355-.743c3.869-1.262,7.076-3.4,8.993-7.127a19.388,19.388,0,0,0,2.221-6.5A7.8,7.8,0,0,0,35.5,46.463a19.187,19.187,0,0,0-9.584-3.887A46.55,46.55,0,0,0,7.682,43.683,36.493,36.493,0,0,0,3.621,45.2a3.117,3.117,0,0,0-2,2.79C.521,56.95-.183,65.92.761,74.945a171.664,171.664,0,0,0,4.134,22.9c.174.713.3,1.438.452,2.157H4.991c-.388-1.78-.764-3.564-1.166-5.341C1.443,84.15-.414,73.564.08,62.736.315,57.582,1,52.45,1.424,47.3a31.207,31.207,0,0,0-.1-3.475,3.577,3.577,0,0,1,.046-.7c.366-2.184.769-4.362,1.091-6.552a9.122,9.122,0,0,0-.129-1.739,11.712,11.712,0,0,1-.047-2.234c.155-1.092.563-2.149.7-3.242A55.057,55.057,0,0,1,5.064,19.326a10.627,10.627,0,0,0,.452-4.088A52.685,52.685,0,0,1,6.072.593C6.11.392,6.18.2,6.235,0h.178c-.026.322-.045.644-.079.965-.266,2.493-.666,4.98-.764,7.479-.084,2.145.252,4.3.256,6.455a22.157,22.157,0,0,1-.413,4.37c-.422,2.106-1.112,4.158-1.545,6.262-.359,1.744-.513,3.531-.791,5.536,4.846-4,10.532-4.964,16.2-5.856a31.8,31.8,0,0,1,17.131,1.681c-.241-.43-.34-.629-.459-.816-.92-1.445-1.818-2.906-2.776-4.325a4.726,4.726,0,0,1-.68-4.14c.608-2.064,1.257-4.121,2.008-6.137C35.931,7.633,37.447,3.823,38.929,0h.178c-.573,1.511-1.172,3.013-1.715,4.535Q35.1,10.95,32.855,17.381a4.7,4.7,0,0,0,.672,4.375c1.076,1.588,2.069,3.233,3.124,4.836a4.554,4.554,0,0,0,.795.8,9.1,9.1,0,0,1,.878.741C40.839,31.082,43.4,34,45.812,37.027a19.511,19.511,0,0,1,1.843,3.482c.274.544.474,1.126.761,1.662,2.626,4.9,2.681,10.076,1.363,15.278a17.965,17.965,0,0,1-2.6,5.568,41.18,41.18,0,0,0-4.623,9.7c-2.429,6.865-5.083,13.651-7.6,20.487-.823,2.237-1.5,4.526-2.246,6.792h-.355c.691-2.1,1.261-4.251,2.094-6.3,3.052-7.493,5.98-15.028,8.4-22.754a23.281,23.281,0,0,1,3.545-7.2c3.507-4.644,4.322-9.932,3.679-15.544a33.862,33.862,0,0,0-.773-3.49,31.371,31.371,0,0,1-3.031,3.152c-2.158,1.692-4.446,3.216-6.663,4.834a1.457,1.457,0,0,0-.625.828,15.4,15.4,0,0,1-1.581,5.5c-.736,1.464-1.568,2.88-2.4,4.391,1.979,1.955,4.553,2.493,7.273,2.713a16.1,16.1,0,0,1-4.07-.575,25.613,25.613,0,0,1-3.526-1.723c-1.739,1.1-3.538,2.215-5.313,3.373a1.26,1.26,0,0,0-.533.783c-.331,2.9-.568,5.821-.925,8.722-.611,4.952-1.313,9.892-1.93,14.844-.35,2.806-.606,5.624-.9,8.437Z"/></g></g></svg>