<svg xmlns="http://www.w3.org/2000/svg" viewBox="0 0 400 54.373"><defs><style>.cb1363d7-46ff-42de-a5ed-d2d6dc42694d{fill:#e2dcdc;}</style></defs><title>Logo</title><g id="665fbc65-a394-4af4-be6c-d08fd14e61a4" data-name="Layer 2"><g id="2475dba0-76a6-461e-926d-64dc51095649" data-name="Logo"><path class="cb1363d7-46ff-42de-a5ed-d2d6dc42694d" d="M2.361,18.638A15.082,15.082,0,0,1,9.172,13.11a26.218,26.218,0,0,1,10.5-1.933q8.9,0,13.925,3.9a12.887,12.887,0,0,1,5.025,10.784,19.748,19.748,0,0,1-.182,2.538L4.9,28.455A9.837,9.837,0,0,0,8.96,36.49q3.935,2.961,11.079,2.96,10.776,0,14.349-6.887l4.662,1.45a14.7,14.7,0,0,1-6.9,7.039A26.647,26.647,0,0,1,19.979,43.5,26.109,26.109,0,0,1,9.354,41.5a15.566,15.566,0,0,1-6.932-5.679A15.366,15.366,0,0,1,0,27.187,15.22,15.22,0,0,1,2.361,18.638Zm31.482,6.676a8.086,8.086,0,0,0-3.572-7.431q-3.814-2.719-10.534-2.719-6.661,0-10.5,2.719a9.589,9.589,0,0,0-4.208,7.431ZM20.221.423,14.893,8.337h2.6L24.278.423Z"/><path class="cb1363d7-46ff-42de-a5ed-d2d6dc42694d" d="M75.527,13.442a8.878,8.878,0,0,1,3.3,6.011l-5.933.846a6.412,6.412,0,0,0-2.422-4.078,8.053,8.053,0,0,0-5.025-1.48,11.476,11.476,0,0,0-6.175,1.9q-3.028,1.9-5.177,6.948T51.946,37.457V42.29H46.5V12.083h5.449V26.522Q53.58,18.427,58,14.8A15.5,15.5,0,0,1,68.11,11.177,11.476,11.476,0,0,1,75.527,13.442Z"/><path class="cb1363d7-46ff-42de-a5ed-d2d6dc42694d" d="M85.3,18.7a15.582,15.582,0,0,1,7.114-5.588,28.082,28.082,0,0,1,10.868-1.933,29.54,29.54,0,0,1,11.17,1.933,16.1,16.1,0,0,1,7.326,5.588,14.577,14.577,0,0,1,2.573,8.609,14.573,14.573,0,0,1-2.573,8.609,16.277,16.277,0,0,1-7.326,5.618,29.137,29.137,0,0,1-11.17,1.964,27.7,27.7,0,0,1-10.868-1.964A15.755,15.755,0,0,1,85.3,35.917a14.947,14.947,0,0,1-2.482-8.609A14.951,14.951,0,0,1,85.3,18.7Zm4.329,15.225a12.755,12.755,0,0,0,5.479,4.35,20.194,20.194,0,0,0,8.174,1.541,21.808,21.808,0,0,0,8.506-1.541,13.063,13.063,0,0,0,5.691-4.35,11,11,0,0,0,2.028-6.616,11,11,0,0,0-2.028-6.615,12.862,12.862,0,0,0-5.691-4.319,22.2,22.2,0,0,0-8.506-1.511,20.775,20.775,0,0,0-8.2,1.511A12.327,12.327,0,0,0,89.6,20.692a11.358,11.358,0,0,0-1.937,6.615A11.238,11.238,0,0,0,89.633,33.923Z"/><path class="cb1363d7-46ff-42de-a5ed-d2d6dc42694d" d="M163.948,12.536a3.6,3.6,0,0,1,3.027-1.239q.545,0,1.877.121l-.424,2.235a9.346,9.346,0,0,0-1.7-.181,2.335,2.335,0,0,0-1.816.665,4.671,4.671,0,0,0-.878,2.356,33.572,33.572,0,0,0-.273,4.954q0,4.773-4.571,7.552t-12.381,2.779a31.932,31.932,0,0,1-4.965-.362,21.379,21.379,0,0,0-6.539.574q-2.24.7-2.24,1.843-.061,1.391,2.21,1.933a55.958,55.958,0,0,0,7.659.967l11.14.846q5.994.484,8.749,2.6a6.853,6.853,0,0,1,2.754,5.739q0,7.732-18.465,7.733-8.9,0-13.622-1.722T128.773,47a5.062,5.062,0,0,1,2.6-4.32,16.67,16.67,0,0,1,7.507-2.205,14.95,14.95,0,0,1-5.9-1.843,3.741,3.741,0,0,1-2.028-3.171q0-4.531,8.476-4.531a13.851,13.851,0,0,1-6.63-3.595,8.233,8.233,0,0,1-2.331-5.89,8.479,8.479,0,0,1,4.389-7.521q4.389-2.749,11.958-2.749a27.6,27.6,0,0,1,10.08,1.631,11.054,11.054,0,0,1,5.842,4.591Q162.979,13.775,163.948,12.536Zm-4.813,30.177q-2.27-1.088-7.78-1.45l-8.234-.483a24.205,24.205,0,0,0-8.9,1.359q-3.028,1.3-3.027,3.232,0,2.114,4.086,3.262A45.811,45.811,0,0,0,147,49.781q14.408,0,14.409-4.047Q161.405,43.8,159.135,42.713Zm-3.784-15.708a6.351,6.351,0,0,0-.03-11.056,15.816,15.816,0,0,0-8.567-2.054,14.085,14.085,0,0,0-8.083,2.054,6.357,6.357,0,0,0-3,5.5,6.424,6.424,0,0,0,2.966,5.558q2.966,2.054,8.113,2.054A15.782,15.782,0,0,0,155.351,27.005Z"/><path class="cb1363d7-46ff-42de-a5ed-d2d6dc42694d" d="M204.178,13.442a8.878,8.878,0,0,1,3.3,6.011l-5.933.846a6.412,6.412,0,0,0-2.422-4.078,8.053,8.053,0,0,0-5.025-1.48,11.476,11.476,0,0,0-6.175,1.9q-3.028,1.9-5.177,6.948T180.6,37.457V42.29h-5.449V12.083H180.6V26.522q1.635-8.095,6.054-11.72a15.5,15.5,0,0,1,10.111-3.625A11.476,11.476,0,0,1,204.178,13.442Z"/><path class="cb1363d7-46ff-42de-a5ed-d2d6dc42694d" d="M241.321,14.167q4.055,2.99,4.055,8.911V42.29h-4.359l-.545-8.458a15.515,15.515,0,0,1-6.75,7.1A21.68,21.68,0,0,1,223.037,43.5a15.5,15.5,0,0,1-8.506-2.054,6.576,6.576,0,0,1-3.179-5.86,8.057,8.057,0,0,1,3.027-6.223q3.026-2.658,8.96-4.108a49.2,49.2,0,0,1,12.29-1.45q2.725,0,4.965.181V23.26q0-4.289-2.937-6.344t-8.384-2.054q-9.749,0-12.048,6.827L212.2,20.48a11.7,11.7,0,0,1,5.812-7.008q4.3-2.3,11.5-2.3Q237.264,11.177,241.321,14.167Zm-8.476,24.014a13.439,13.439,0,0,0,5.57-4.44,11.478,11.478,0,0,0,2.119-6.675q-2.362-.182-4.843-.182a46.583,46.583,0,0,0-9.808.967,19.727,19.727,0,0,0-6.811,2.688,5.05,5.05,0,0,0-2.512,4.259,4,4,0,0,0,2.3,3.685,12.81,12.81,0,0,0,6.176,1.269A18.909,18.909,0,0,0,232.845,38.182Z"/><path class="cb1363d7-46ff-42de-a5ed-d2d6dc42694d" d="M284.486,13.11a14.983,14.983,0,0,1,6.417,5.528,15.29,15.29,0,0,1,2.3,8.428,16.236,16.236,0,0,1-2.3,8.729,15.1,15.1,0,0,1-6.417,5.709A21.268,21.268,0,0,1,275.1,43.5a21.766,21.766,0,0,1-9.354-1.843,13.652,13.652,0,0,1-6.024-5.347V54.373H254.4V12.083h5.329v6.042a13.533,13.533,0,0,1,6.024-5.166,22.407,22.407,0,0,1,9.354-1.782A21.834,21.834,0,0,1,284.486,13.11Zm-3.118,25.676a11.706,11.706,0,0,0,4.843-4.652,14,14,0,0,0,1.726-7.068,11.775,11.775,0,0,0-3.784-9.244q-3.784-3.382-10.02-3.383-6.66,0-10.534,3.383a11.637,11.637,0,0,0-3.874,9.244q0,6.162,3.874,9.757t10.534,3.594A15.393,15.393,0,0,0,281.368,38.786Z"/><path class="cb1363d7-46ff-42de-a5ed-d2d6dc42694d" d="M336.038,14.288q3.42,3.112,3.421,8.669V42.29h-5.813V23.562q0-9.606-9.5-9.605a17.5,17.5,0,0,0-8.052,2.084,17.077,17.077,0,0,0-6.933,7.34q-2.876,5.256-2.875,14.077V42.29h-5.57V0h5.57V27.247q2.24-8.458,7.841-12.264a21.256,21.256,0,0,1,12.2-3.806Q332.617,11.177,336.038,14.288Z"/><path class="cb1363d7-46ff-42de-a5ed-d2d6dc42694d" d="M354.231,1.813v5.5H347.57v-5.5Zm-.787,10.271V42.29h-4.966V12.083Z"/><path class="cb1363d7-46ff-42de-a5ed-d2d6dc42694d" d="M363.311,18.638a15.083,15.083,0,0,1,6.811-5.528,26.221,26.221,0,0,1,10.5-1.933q8.9,0,13.924,3.9a12.887,12.887,0,0,1,5.025,10.784A19.83,19.83,0,0,1,399.4,28.4l-33.542.06a9.837,9.837,0,0,0,4.057,8.035q3.934,2.961,11.078,2.96,10.776,0,14.349-6.887L400,34.013a14.7,14.7,0,0,1-6.9,7.039A26.65,26.65,0,0,1,380.929,43.5,26.1,26.1,0,0,1,370.3,41.5a15.565,15.565,0,0,1-6.933-5.679,15.366,15.366,0,0,1-2.421-8.639A15.224,15.224,0,0,1,363.311,18.638Zm31.483,6.676a8.088,8.088,0,0,0-3.572-7.431q-3.814-2.719-10.534-2.719-6.662,0-10.5,2.719a9.59,9.59,0,0,0-4.208,7.431Z"/></g></g></svg>