<?xml version="1.0" encoding="utf-8"?>
<!-- Generator: Adobe Illustrator 23.0.1, SVG Export Plug-In . SVG Version: 6.00 Build 0)  -->
<svg version="1.1" id="Layer_1" xmlns="http://www.w3.org/2000/svg" xmlns:xlink="http://www.w3.org/1999/xlink" x="0px" y="0px"
	 viewBox="0 0 275.69 121.41" style="enable-background:new 0 0 275.69 121.41;" xml:space="preserve">
<style type="text/css">
	.st0{fill:none;}
	.st1{fill:#E2DEDC;}
</style>
<path class="st0" d="M68.48,96.5c-0.39,1.03-0.73,1.97-1.04,2.83c-0.49,1.36-0.92,2.52-1.33,3.5c1.99-0.98,3.83-2.18,5.32-3.21
	c3.79-2.62,7.28-5.78,10.65-8.83c0.68-0.62,1.36-1.23,2.05-1.85C77.35,89.45,70.76,90.43,68.48,96.5z"/>
<path class="st0" d="M86.14,88.81c-0.12,0.01-0.24,0.02-0.36,0.02c-0.2,0.18-0.41,0.35-0.61,0.53c-0.81,0.72-1.61,1.45-2.41,2.17
	c-3.4,3.07-6.91,6.25-10.75,8.91c-1.78,1.23-4.06,2.72-6.53,3.79c-2,3.96-4.3,4.23-12.72,3.76c-1.6-0.09-3.18,0.01-4.73,0.22
	c-0.78,0.31-1.45,0.75-1.85,1.39c-0.21,0.33-0.26,0.66-0.16,0.96c0.11,0.34,0.42,0.62,0.84,0.79c0.71,0.28,1.66,0.39,2.57,0.5
	c0.67,0.08,1.35,0.16,1.96,0.31c1.73,0.42,3.59,0.98,5.68,1.72c3.33,1.18,5.7,1.72,8.71,1.23c2.39-0.4,4.85-1.61,7.03-2.67
	l0.33-0.16c0.77-0.38,1.54-0.84,2.29-1.28c1.61-0.96,3.27-1.95,5.18-2.31c0.59-0.11,1.17-0.23,1.76-0.34
	c2.13-0.43,4.34-0.87,6.64-0.88c0.02,0,0.03,0,0.05,0c1.75,0,3.63,0.19,5.91,0.6c0.5,0.09,1.03,0.19,1.57,0.3
	c4.07,0.8,9.13,1.78,12.31-1.04c3.11-2.76,2.49-6.38,1.84-10.23c-0.69-4.05-1.39-8.23,2.26-11.57c2.12-1.94,4.81-3.88,8.2-5.94
	c-8.05,3-16.62,5.66-26.08,8.1C92.4,88.38,89.36,88.59,86.14,88.81z"/>
<path class="st0" d="M64.01,104.8c-0.88,0.29-1.59,0.29-2.33,0.29c-0.33,0-0.67,0-1.05,0.02c-1.41,0.1-2.66,0.6-3.99,1.12
	c-0.76,0.3-1.54,0.6-2.35,0.83C60.26,107.37,62.43,107.18,64.01,104.8z"/>
<path class="st0" d="M195.88,65.28c0.67-0.44,0.8-0.73,0.77-0.83c-0.13-0.43-1.7-0.91-2.9-0.86c-0.76,0.02-1.57,0.17-2.42,0.33
	c-2.13,0.4-4.54,0.83-6.42-0.87c0.01,0.23,0,0.47,0.01,0.71c0.12,2.24,0.44,4.9,1.44,7.07c0.78-0.44,1.56-0.89,2.33-1.32
	C191.09,68.17,193.56,66.79,195.88,65.28z"/>
<path class="st0" d="M186.85,82.71c0.46-0.26,0.93-0.48,1.39-0.72c-0.04-0.15-0.06-0.26-0.08-0.3c-0.31-0.83-0.73-1.6-1.18-2.36
	c-0.47,0.28-0.95,0.57-1.42,0.84c-0.23,0.13-0.46,0.28-0.69,0.41C185.52,81.29,186.17,82,186.85,82.71z"/>
<path class="st0" d="M179.45,76.24c-0.11,0.08-0.23,0.16-0.33,0.24L179.45,76.24C179.45,76.25,179.45,76.25,179.45,76.24z"/>
<path class="st0" d="M184.54,75.47c-0.37-0.58-0.75-1.16-1.11-1.74c-0.34,0.21-0.69,0.4-1.02,0.62c-0.35,0.22-0.7,0.43-1.06,0.65
	c-0.19,0.11-0.38,0.24-0.58,0.36l1.36,1.8C182.93,76.6,183.73,76.05,184.54,75.47z"/>
<path class="st0" d="M185.08,76.31c-0.83,0.59-1.67,1.19-2.53,1.77c0.23,0.25,0.47,0.49,0.7,0.74c0.3,0.34,0.62,0.67,0.93,1.01
	c0.29-0.17,0.59-0.35,0.88-0.52c0.46-0.27,0.93-0.55,1.39-0.83c-0.29-0.47-0.59-0.93-0.88-1.4
	C185.41,76.83,185.24,76.57,185.08,76.31z"/>
<path class="st0" d="M180.27,75.66c0.01,0.01,0.01,0.01,0.02,0.02l0.4-0.28C180.55,75.48,180.41,75.57,180.27,75.66z"/>
<path class="st0" d="M180.84,74.13c0.35-0.21,0.7-0.42,1.03-0.63c0.34-0.22,0.69-0.41,1.03-0.62c-1.31-2.14-2.48-4.35-3.07-6.9
	c-0.85-3.69,0.72-7.92,1.44-11.55c0.92-4.59,2.83-8.9,3.54-13.5c0.66-4.23,3.42-8.05,2.91-12.52c-0.11-0.91-0.41-1.59-0.84-2.14
	c-0.84-0.47-1.69-0.92-2.57-1.32c-4.96-2.27-10.41-4.24-16.61-3.34c-6.73,0.97-12.89,4.42-16.94,6.92
	c-4.34,2.68-8.59,5.65-12.73,8.56c-0.49,0.34-0.98,0.69-1.46,1.03c-0.38,0.27-0.77,0.54-1.16,0.82c-4.4,3.1-8.92,6.26-13.58,9.11
	c-4.76,2.91-9.68,5.72-14.45,8.43c-4.69,2.67-9.53,5.43-14.2,8.28c-2.7,1.65-5.41,3.4-8.03,5.1c-6.3,4.07-12.81,8.28-19.77,11.48
	c-5.29,2.44-10.67,5.09-15.88,7.65c-4.01,1.97-8.16,4.02-12.23,5.95c-2.72,1.29-5.41,2.91-8.01,4.47c-2.97,1.79-6.05,3.64-9.25,5.06
	c-1.54,0.68-4.02,1.1-6.64,1.55c-5.05,0.86-11.31,1.93-12.28,5.23c4.2,2.42,14.51,1.65,21.39,1.13c1.47-0.11,2.78-0.21,3.86-0.26
	c4.09-0.21,8.03-1.4,11.84-2.55c3.12-0.94,6.31-1.9,9.63-2.34c1.42-0.52,3.06-0.67,4.33-0.78l0.31-0.03c1.33-0.12,2.53-0.6,3.8-1.1
	c1.34-0.53,2.73-1.09,4.29-1.19c0.41-0.03,0.77-0.03,1.12-0.03c0.76,0,1.35,0,2.14-0.28c0.31-0.11,0.62-0.24,0.93-0.37
	c0.54-1.14,1.07-2.59,1.74-4.46c0.31-0.86,0.66-1.81,1.04-2.84c2.65-7.06,10.28-7.78,17.82-8.3c0.23-0.02,0.47-0.03,0.7-0.05
	c0.32-0.02,0.64-0.05,0.96-0.07c2.81-0.19,5.47-0.42,7.76-1.01c10.95-2.83,20.71-5.95,29.83-9.54c1.37-0.54,2.72-1.08,4.07-1.63
	c1.9-1.11,3.68-2.47,4.94-4.5l0.85,0.53c-0.55,0.88-1.19,1.64-1.89,2.31c6.83-2.99,13.17-6.42,18.28-11.22
	c2.08-1.96,3.78-4.35,5.43-6.67c0.35-0.49,0.7-0.98,1.05-1.47l0.35-0.48l0.41,0.43c3.58,3.71,7.45,7.26,11.19,10.69
	c3.42,3.14,6.92,6.35,10.26,9.74C179.98,74.65,180.41,74.39,180.84,74.13z"/>
<path class="st0" d="M86.14,88.81c-0.12,0.01-0.24,0.02-0.36,0.02c-0.2,0.18-0.41,0.35-0.61,0.53c-0.81,0.72-1.61,1.45-2.41,2.17
	c-3.4,3.07-6.91,6.25-10.75,8.91c-1.78,1.23-4.06,2.72-6.53,3.79c-2,3.96-4.3,4.23-12.72,3.76c-1.6-0.09-3.18,0.01-4.73,0.22
	c-0.78,0.31-1.45,0.75-1.85,1.39c-0.21,0.33-0.26,0.66-0.16,0.96c0.11,0.34,0.42,0.62,0.84,0.79c0.71,0.28,1.66,0.39,2.57,0.5
	c0.67,0.08,1.35,0.16,1.96,0.31c1.73,0.42,3.59,0.98,5.68,1.72c3.33,1.18,5.7,1.72,8.71,1.23c2.39-0.4,4.85-1.61,7.03-2.67
	l0.33-0.16c0.77-0.38,1.54-0.84,2.29-1.28c1.61-0.96,3.27-1.95,5.18-2.31c0.59-0.11,1.17-0.23,1.76-0.34
	c2.13-0.43,4.34-0.87,6.64-0.88c0.02,0,0.03,0,0.05,0c1.75,0,3.63,0.19,5.91,0.6c0.5,0.09,1.03,0.19,1.57,0.3
	c4.07,0.8,9.13,1.78,12.31-1.04c3.11-2.76,2.49-6.38,1.84-10.23c-0.69-4.05-1.39-8.23,2.26-11.57c2.12-1.94,4.81-3.88,8.2-5.94
	c-8.05,3-16.62,5.66-26.08,8.1C92.4,88.38,89.36,88.59,86.14,88.81z"/>
<path class="st0" d="M167.57,20.62c4.87-0.71,9.25,0.27,13.29,1.79c-3.77-3.83,4.68-8.23,7.35-9.59c1.61-0.82,3.19-1.45,4.66-2.36
	c-5.38-4.9-11.55-9.11-18.57-9.45c-8.73-0.42-15.38,7.35-20.91,14.68c-2.93,3.88-5.77,7.93-8.52,11.85
	c-1.63,2.33-3.29,4.69-4.98,7.04c3.39-2.37,6.85-4.73,10.37-6.91C154.38,25.13,160.66,21.62,167.57,20.62z"/>
<path class="st0" d="M181.85,77.34c0.04-0.03,0.08-0.06,0.12-0.08L181.85,77.34C181.85,77.34,181.85,77.34,181.85,77.34z"/>
<path class="st0" d="M84.13,88.95c-6.78,0.51-13.37,1.48-15.65,7.56c-0.39,1.03-0.73,1.97-1.04,2.83c-0.49,1.36-0.92,2.52-1.33,3.5
	c1.99-0.98,3.83-2.18,5.32-3.21c3.79-2.62,7.28-5.78,10.65-8.83C82.76,90.18,83.44,89.56,84.13,88.95z"/>
<path class="st0" d="M64.01,104.8c-0.88,0.29-1.59,0.29-2.33,0.29c-0.33,0-0.67,0-1.05,0.02c-1.41,0.1-2.66,0.6-3.99,1.12
	c-0.76,0.3-1.54,0.6-2.35,0.83C60.26,107.37,62.43,107.18,64.01,104.8z"/>
<path class="st0" d="M178.4,83.75c0.08-0.07,0.17-0.14,0.24-0.19l0.11-0.08c0.63-0.52,1.27-1,1.9-1.44c0.86-0.6,1.75-1.15,2.65-1.69
	c-0.26-0.29-0.53-0.57-0.79-0.86c-0.26-0.29-0.54-0.57-0.8-0.85c-0.36,0.24-0.71,0.49-1.08,0.72c-0.34,0.22-0.72,0.42-1.1,0.63
	c-0.41,0.22-0.83,0.45-1.21,0.7l0.01,0.01c-0.46,0.39-0.83,0.89-1.23,1.42c-0.24,0.33-0.49,0.66-0.76,0.98
	c-0.13,0.15-0.28,0.3-0.44,0.46c-0.44,0.43-0.94,0.92-0.87,1.36c0.02,0.14,0.14,0.35,0.26,0.45c0.05,0.04,0.17,0.09,0.49,0.07
	C176.71,85.38,177.69,84.44,178.4,83.75L178.4,83.75z"/>
<path class="st0" d="M185.68,84.59c-0.22,0.15-0.49,0.32-0.79,0.51c-0.49,0.3-1.05,0.66-1.55,1.04c-0.1,0.47-0.41,0.84-0.7,1.16
	c-0.26,0.3-0.52,0.58-0.51,0.86c0,0.1,0.02,0.15,0.02,0.16c0.02,0.02,0.1,0.06,0.44,0.1c1.59,0.17,3.6-1.12,5.07-2.06l0.43-0.28
	c0.12-0.08,0.25-0.15,0.38-0.23c-0.62-0.63-1.21-1.25-1.8-1.88C186.33,84.16,186,84.37,185.68,84.59z"/>
<path class="st0" d="M185.11,83.76c0.28-0.19,0.56-0.37,0.84-0.54c-0.67-0.71-1.32-1.41-1.97-2.12c-0.94,0.56-1.87,1.13-2.77,1.76
	c-0.61,0.42-1.23,0.89-1.84,1.39l-0.14,0.11c-0.02,0.01-0.05,0.04-0.08,0.06c-0.19,0.25-0.35,0.53-0.52,0.83l-0.22,0.38
	c-0.27,0.45-0.46,0.95-0.56,1.45c-0.07,0.37,0.11,1,0.39,1.09c0.41,0.14,1.06-0.32,1.54-0.66c0.13-0.09,0.25-0.17,0.36-0.24
	c0.32-0.21,0.62-0.45,0.93-0.69c0.33-0.26,0.68-0.52,1.05-0.75c0.66-0.61,1.49-1.13,2.23-1.59
	C184.64,84.07,184.9,83.91,185.11,83.76z"/>
<path class="st0" d="M187.56,83.45c0.38,0.39,0.76,0.79,1.14,1.18c-0.07-0.56-0.17-1.14-0.26-1.63
	C188.15,83.15,187.85,83.3,187.56,83.45z"/>
<path class="st0" d="M258.43,85.02l-0.93-0.28c-4.49-1.32-8.54-2.53-12.65-3.97c-10-3.51-17.38-7.46-23.25-12.45
	c-0.89-0.75-1.76-1.53-2.63-2.3c-3.13-2.76-6.36-5.62-10.16-7.54c-2.07-1.05-4.6-0.88-7.06-0.73c-0.64,0.04-1.27,0.08-1.88,0.1
	l-0.92,0.03c-3.5,0.1-7.47,0.21-10.63,1.35l-0.23,0.08c-1.04,0.37-2.96,1.06-3.14,1.9c-0.06,0.29,0.12,0.64,0.53,1.03
	c1.53,1.46,3.53,1.09,5.66,0.7c0.86-0.16,1.74-0.32,2.58-0.35c1.04-0.03,3.49,0.32,3.88,1.56c0.21,0.66-0.19,1.32-1.18,1.97
	c-2.35,1.53-4.83,2.92-7.24,4.26c-0.78,0.43-1.57,0.88-2.35,1.33c0.14,0.23,0.27,0.45,0.43,0.66c0.21,0.28,0.43,0.54,0.65,0.8
	c0.44-0.26,0.88-0.5,1.32-0.74c0.93-0.51,1.8-0.99,2.61-1.57l0.59,0.81c-0.86,0.62-1.8,1.14-2.72,1.64
	c-0.37,0.2-0.74,0.41-1.11,0.62c0.62,0.65,1.25,1.28,1.86,1.94c0.89-0.63,1.8-1.27,2.62-1.92l0.62,0.79
	c-0.81,0.64-1.7,1.27-2.58,1.89c0.64,0.77,1.21,1.6,1.63,2.59c0.04,0.1,0.07,0.2,0.11,0.3c0.08-0.04,0.16-0.09,0.24-0.13
	c0.58-0.32,1.25-0.68,1.6-1.04l0.72,0.7c-0.45,0.47-1.15,0.85-1.83,1.22c-0.13,0.07-0.25,0.14-0.37,0.2
	c0.29,0.87,0.47,1.71,0.57,2.53c2.14-0.99,4.47-1.92,7.09-2.81c4.31-1.47,9.39-2.72,14.36-0.88c3.85,1.42,7.29,3.72,10.15,5.79
	c4.52,3.27,9.22,6.42,13.97,9.36c0.7,0.43,1.42,0.88,2.15,1.34c7.33,4.6,16.25,10.18,25.11,9.6c1.12-3.05,1.39-6.18,1.69-9.66
	c0.06-0.71,0.12-1.43,0.19-2.16c0.21-2.2,0.57-4.34,1.06-6.47C266.07,87.32,261.42,85.92,258.43,85.02z"/>
<path class="st0" d="M240.96,96.62c-0.73-0.46-1.44-0.91-2.14-1.34c-4.77-2.95-9.49-6.11-14.03-9.4c-2.8-2.03-6.17-4.28-9.91-5.66
	c-4.67-1.72-9.34-0.59-13.69,0.89c-2.73,0.93-5.15,1.89-7.35,2.93c0.02,1.61-0.32,3.15-1.04,4.7c7.91,7.71,17.22,15.7,28.55,24.51
	c3.52,2.74,6.64,4.45,10.12,5.57c10.98,3.52,25.9,1.35,33.17-9.61c0.62-0.94,1.12-1.87,1.53-2.81c-0.29,0.01-0.59,0.03-0.88,0.03
	C256.6,106.44,248.05,101.07,240.96,96.62z"/>
<path class="st0" d="M179.04,79.11c0.36-0.2,0.72-0.39,1.05-0.6c0.18-0.11,0.36-0.23,0.53-0.35l-1.51-1.68
	c-0.15,0.13-0.3,0.26-0.46,0.39c-0.2,0.17-0.4,0.35-0.61,0.52c-0.34,0.28-0.69,0.57-1.01,0.87c-0.41,0.39-0.8,0.84-1.05,1.21
	c-0.19,0.28-0.24,0.61-0.15,0.81c0.07,0.14,0.21,0.22,0.44,0.25c0.25,0.02,0.58-0.08,0.9-0.26
	C177.74,79.83,178.4,79.46,179.04,79.11z"/>
<path class="st1" d="M182.13,77.15L182.13,77.15c-0.05,0.03-0.11,0.07-0.16,0.11L182.13,77.15z"/>
<path class="st1" d="M180.77,75.34l-0.08,0.05C180.72,75.38,180.75,75.36,180.77,75.34L180.77,75.34z"/>
<path class="st0" d="M180.84,74.13c0.35-0.21,0.7-0.42,1.03-0.63c0.34-0.22,0.69-0.41,1.03-0.62c-1.31-2.14-2.48-4.35-3.07-6.9
	c-0.85-3.69,0.72-7.92,1.44-11.55c0.92-4.59,2.83-8.9,3.54-13.5c0.66-4.23,3.42-8.05,2.91-12.52c-0.11-0.91-0.41-1.59-0.84-2.14
	c-0.84-0.47-1.69-0.92-2.57-1.32c-4.96-2.27-10.41-4.24-16.61-3.34c-6.73,0.97-12.89,4.42-16.94,6.92
	c-4.34,2.68-8.59,5.65-12.73,8.56c-0.49,0.34-0.98,0.69-1.46,1.03c-0.38,0.27-0.77,0.54-1.16,0.82c-4.4,3.1-8.92,6.26-13.58,9.11
	c-4.76,2.91-9.68,5.72-14.45,8.43c-4.69,2.67-9.53,5.43-14.2,8.28c-2.7,1.65-5.41,3.4-8.03,5.1c-6.3,4.07-12.81,8.28-19.77,11.48
	c-5.29,2.44-10.67,5.09-15.88,7.65c-4.01,1.97-8.16,4.02-12.23,5.95c-2.72,1.29-5.41,2.91-8.01,4.47c-2.97,1.79-6.05,3.64-9.25,5.06
	c-1.54,0.68-4.02,1.1-6.64,1.55c-5.05,0.86-11.31,1.93-12.28,5.23c4.2,2.42,14.51,1.65,21.39,1.13c1.47-0.11,2.78-0.21,3.86-0.26
	c4.09-0.21,8.03-1.4,11.84-2.55c3.12-0.94,6.31-1.9,9.63-2.34c1.42-0.52,3.06-0.67,4.33-0.78l0.31-0.03c1.33-0.12,2.53-0.6,3.8-1.1
	c1.34-0.53,2.73-1.09,4.29-1.19c0.41-0.03,0.77-0.03,1.12-0.03c0.76,0,1.35,0,2.14-0.28c0.31-0.11,0.62-0.24,0.93-0.37
	c0.54-1.14,1.07-2.59,1.74-4.46c0.31-0.86,0.66-1.81,1.04-2.84c2.65-7.06,10.28-7.78,17.82-8.3c0.23-0.02,0.47-0.03,0.7-0.05
	c0.32-0.02,0.64-0.05,0.96-0.07c2.81-0.19,5.47-0.42,7.76-1.01c10.95-2.83,20.71-5.95,29.83-9.54c1.37-0.54,2.72-1.08,4.07-1.63
	c1.9-1.11,3.68-2.47,4.94-4.5l0.85,0.53c-0.55,0.88-1.19,1.64-1.89,2.31c6.83-2.99,13.17-6.42,18.28-11.22
	c2.08-1.96,3.78-4.35,5.43-6.67c0.35-0.49,0.7-0.98,1.05-1.47l0.35-0.48l0.41,0.43c3.58,3.71,7.45,7.26,11.19,10.69
	c3.42,3.14,6.92,6.35,10.26,9.74C179.98,74.65,180.41,74.39,180.84,74.13z"/>
<path class="st0" d="M188.69,69.51c2.39-1.34,4.86-2.72,7.18-4.23c0.67-0.44,0.8-0.73,0.77-0.83c-0.13-0.43-1.7-0.91-2.9-0.86
	c-0.76,0.02-1.57,0.17-2.42,0.33c-2.13,0.4-4.54,0.83-6.42-0.87c0.01,0.23,0,0.47,0.01,0.71c0.12,2.24,0.44,4.9,1.44,7.07
	C187.14,70.38,187.92,69.94,188.69,69.51z"/>
<path class="st0" d="M179.04,79.11c0.36-0.2,0.72-0.39,1.05-0.6c0.18-0.11,0.36-0.23,0.53-0.35l0,0l1.23-0.82c0,0,0,0,0,0
	c0.04-0.03,0.08-0.06,0.12-0.08l0.16-0.11l0,0c0.8-0.55,1.6-1.1,2.41-1.68c-0.37-0.58-0.75-1.16-1.11-1.74
	c-0.34,0.21-0.69,0.4-1.02,0.62c-0.35,0.22-0.7,0.43-1.06,0.65c-0.19,0.11-0.38,0.24-0.58,0.36l0,0l-0.08,0.05
	c-0.14,0.09-0.28,0.17-0.42,0.26c0.01,0.01,0.01,0.01,0.02,0.02l-0.83,0.57c0,0,0,0-0.01-0.01c-0.11,0.08-0.23,0.16-0.33,0.24
	c-0.15,0.13-0.3,0.26-0.46,0.39c-0.2,0.17-0.4,0.35-0.61,0.52c-0.34,0.28-0.69,0.57-1.01,0.87c-0.41,0.39-0.8,0.84-1.05,1.21
	c-0.19,0.28-0.24,0.61-0.15,0.81c0.07,0.14,0.21,0.22,0.44,0.25c0.25,0.02,0.58-0.08,0.9-0.26
	C177.74,79.83,178.4,79.46,179.04,79.11z"/>
<path class="st0" d="M178.4,83.75c0.08-0.07,0.17-0.14,0.24-0.19l0.11-0.08c0.63-0.52,1.27-1,1.9-1.44c0.82-0.57,1.66-1.09,2.5-1.6
	l-0.19,0.11l-1.64-1.65l0.33-0.22c-0.34,0.23-0.67,0.46-1.02,0.68c-0.34,0.22-0.72,0.42-1.1,0.63c-0.41,0.22-0.83,0.45-1.21,0.7
	l0.01,0.01c-0.46,0.39-0.83,0.89-1.23,1.42c-0.24,0.33-0.49,0.66-0.76,0.98c-0.13,0.15-0.28,0.3-0.44,0.46
	c-0.44,0.43-0.94,0.92-0.87,1.36c0.02,0.14,0.14,0.35,0.26,0.45c0.05,0.04,0.17,0.09,0.49,0.07
	C176.71,85.38,177.69,84.44,178.4,83.75L178.4,83.75z"/>
<path class="st0" d="M184.61,79.58l-0.16,0.09c0.2-0.12,0.41-0.24,0.61-0.36c0.46-0.27,0.93-0.55,1.39-0.83
	c-0.29-0.47-0.59-0.93-0.88-1.4c-0.16-0.26-0.33-0.52-0.49-0.78c-0.74,0.53-1.49,1.05-2.26,1.58l0.26-0.17L184.61,79.58z"/>
<path class="st0" d="M86.14,88.81c-0.12,0.01-0.24,0.02-0.36,0.02c-0.2,0.18-0.41,0.35-0.61,0.53c-0.81,0.72-1.61,1.45-2.41,2.17
	c-3.4,3.07-6.91,6.25-10.75,8.91c-1.78,1.23-4.06,2.72-6.53,3.79c-2,3.96-4.3,4.23-12.72,3.76c-1.6-0.09-3.18,0.01-4.73,0.22
	c-0.78,0.31-1.45,0.75-1.85,1.39c-0.21,0.33-0.26,0.66-0.16,0.96c0.11,0.34,0.42,0.62,0.84,0.79c0.71,0.28,1.66,0.39,2.57,0.5
	c0.67,0.08,1.35,0.16,1.96,0.31c1.73,0.42,3.59,0.98,5.68,1.72c3.33,1.18,5.7,1.72,8.71,1.23c2.39-0.4,4.85-1.61,7.03-2.67
	l0.33-0.16c0.77-0.38,1.54-0.84,2.29-1.28c1.61-0.96,3.27-1.95,5.18-2.31c0.59-0.11,1.17-0.23,1.76-0.34
	c2.13-0.43,4.34-0.87,6.64-0.88c0.02,0,0.03,0,0.05,0c1.75,0,3.63,0.19,5.91,0.6c0.5,0.09,1.03,0.19,1.57,0.3
	c4.07,0.8,9.13,1.78,12.31-1.04c3.11-2.76,2.49-6.38,1.84-10.23c-0.69-4.05-1.39-8.23,2.26-11.57c2.12-1.94,4.81-3.88,8.2-5.94
	c-8.05,3-16.62,5.66-26.08,8.1C92.4,88.38,89.36,88.59,86.14,88.81z"/>
<path class="st0" d="M84.13,88.95c-6.78,0.51-13.37,1.48-15.65,7.56c-0.39,1.03-0.73,1.97-1.04,2.83c-0.49,1.36-0.92,2.52-1.33,3.5
	c1.99-0.98,3.83-2.18,5.32-3.21c3.79-2.62,7.28-5.78,10.65-8.83C82.76,90.18,83.44,89.56,84.13,88.95z"/>
<path class="st0" d="M64.01,104.8c-0.88,0.29-1.59,0.29-2.33,0.29c-0.33,0-0.67,0-1.05,0.02c-1.41,0.1-2.66,0.6-3.99,1.12
	c-0.76,0.3-1.54,0.6-2.35,0.83C60.26,107.37,62.43,107.18,64.01,104.8z"/>
<path class="st0" d="M167.57,20.62c4.87-0.71,9.25,0.27,13.29,1.79c-3.77-3.83,4.68-8.23,7.35-9.59c1.61-0.82,3.19-1.45,4.66-2.36
	c-5.38-4.9-11.55-9.11-18.57-9.45c-8.73-0.42-15.38,7.35-20.91,14.68c-2.93,3.88-5.77,7.93-8.52,11.85
	c-1.63,2.33-3.29,4.69-4.98,7.04c3.39-2.37,6.85-4.73,10.37-6.91C154.38,25.13,160.66,21.62,167.57,20.62z"/>
<path class="st0" d="M186.85,82.71c0.46-0.26,0.93-0.48,1.39-0.72c-0.04-0.15-0.06-0.26-0.08-0.3c-0.31-0.83-0.73-1.6-1.18-2.36
	c-0.47,0.28-0.95,0.57-1.42,0.84c-0.23,0.13-0.46,0.28-0.69,0.41C185.52,81.29,186.17,82,186.85,82.71z"/>
<path class="st0" d="M187.56,83.45c0.38,0.39,0.76,0.79,1.14,1.18c-0.07-0.56-0.17-1.14-0.26-1.63
	C188.15,83.15,187.85,83.3,187.56,83.45z"/>
<path class="st0" d="M185.68,84.59c-0.22,0.15-0.49,0.32-0.79,0.51c-0.49,0.3-1.05,0.66-1.55,1.04c-0.1,0.47-0.41,0.84-0.7,1.16
	c-0.26,0.3-0.52,0.58-0.51,0.86c0,0.1,0.02,0.15,0.02,0.16c0.02,0.02,0.1,0.06,0.44,0.1c1.59,0.17,3.6-1.12,5.07-2.06l0.43-0.28
	c0.12-0.08,0.25-0.15,0.38-0.23c-0.62-0.63-1.21-1.25-1.8-1.88C186.33,84.16,186,84.37,185.68,84.59z"/>
<path class="st0" d="M258.43,85.02l-0.93-0.28c-4.49-1.32-8.54-2.53-12.65-3.97c-10-3.51-17.38-7.46-23.25-12.45
	c-0.89-0.75-1.76-1.53-2.63-2.3c-3.13-2.76-6.36-5.62-10.16-7.54c-2.07-1.05-4.6-0.88-7.06-0.73c-0.64,0.04-1.27,0.08-1.88,0.1
	l-0.92,0.03c-3.5,0.1-7.47,0.21-10.63,1.35l-0.23,0.08c-1.04,0.37-2.96,1.06-3.14,1.9c-0.06,0.29,0.12,0.64,0.53,1.03
	c1.53,1.46,3.53,1.09,5.66,0.7c0.86-0.16,1.74-0.32,2.58-0.35c1.04-0.03,3.49,0.32,3.88,1.56c0.21,0.66-0.19,1.32-1.18,1.97
	c-2.35,1.53-4.83,2.92-7.24,4.26c-0.78,0.43-1.57,0.88-2.35,1.33c0.14,0.23,0.27,0.45,0.43,0.66c0.21,0.28,0.43,0.54,0.65,0.8
	c0.44-0.26,0.88-0.5,1.32-0.74c0.93-0.51,1.8-0.99,2.61-1.57l0.59,0.81c-0.86,0.62-1.8,1.14-2.72,1.64
	c-0.37,0.2-0.74,0.41-1.11,0.62c0.62,0.65,1.25,1.28,1.86,1.94c0.89-0.63,1.8-1.27,2.62-1.92l0.62,0.79
	c-0.81,0.64-1.7,1.27-2.58,1.89c0.64,0.77,1.21,1.6,1.63,2.59c0.04,0.1,0.07,0.2,0.11,0.3c0.08-0.04,0.16-0.09,0.24-0.13
	c0.58-0.32,1.25-0.68,1.6-1.04l0.72,0.7c-0.45,0.47-1.15,0.85-1.83,1.22c-0.13,0.07-0.25,0.14-0.37,0.2
	c0.29,0.87,0.47,1.71,0.57,2.53c2.14-0.99,4.47-1.92,7.09-2.81c4.31-1.47,9.39-2.72,14.36-0.88c3.85,1.42,7.29,3.72,10.15,5.79
	c4.52,3.27,9.22,6.42,13.97,9.36c0.7,0.43,1.42,0.88,2.15,1.34c7.33,4.6,16.25,10.18,25.11,9.6c1.12-3.05,1.39-6.18,1.69-9.66
	c0.06-0.71,0.12-1.43,0.19-2.16c0.21-2.2,0.57-4.34,1.06-6.47C266.07,87.32,261.42,85.92,258.43,85.02z"/>
<path class="st0" d="M240.96,96.62c-0.73-0.46-1.44-0.91-2.14-1.34c-4.77-2.95-9.49-6.11-14.03-9.4c-2.8-2.03-6.17-4.28-9.91-5.66
	c-4.67-1.72-9.34-0.59-13.69,0.89c-2.73,0.93-5.15,1.89-7.35,2.93c0.02,1.61-0.32,3.15-1.04,4.7c7.91,7.71,17.22,15.7,28.55,24.51
	c3.52,2.74,6.64,4.45,10.12,5.57c10.98,3.52,25.9,1.35,33.17-9.61c0.62-0.94,1.12-1.87,1.53-2.81c-0.29,0.01-0.59,0.03-0.88,0.03
	C256.6,106.44,248.05,101.07,240.96,96.62z"/>
<path class="st0" d="M185.11,83.76c0.28-0.19,0.56-0.37,0.84-0.54c-0.67-0.71-1.32-1.41-1.97-2.12c-0.94,0.56-1.87,1.13-2.77,1.76
	c-0.61,0.42-1.23,0.89-1.84,1.39l-0.14,0.11c-0.02,0.01-0.05,0.04-0.08,0.06c-0.19,0.25-0.35,0.53-0.52,0.83l-0.22,0.38
	c-0.27,0.45-0.46,0.95-0.56,1.45c-0.07,0.37,0.11,1,0.39,1.09c0.41,0.14,1.06-0.32,1.54-0.66c0.13-0.09,0.25-0.17,0.36-0.24
	c0.32-0.21,0.62-0.45,0.93-0.69c0.33-0.26,0.68-0.52,1.05-0.75c0.66-0.61,1.49-1.13,2.23-1.59
	C184.64,84.07,184.9,83.91,185.11,83.76z"/>
<path class="st0" d="M180.84,74.13c0.35-0.21,0.7-0.42,1.03-0.63c0.34-0.22,0.69-0.41,1.03-0.62c-1.31-2.14-2.48-4.35-3.07-6.9
	c-0.85-3.69,0.72-7.92,1.44-11.55c0.92-4.59,2.83-8.9,3.54-13.5c0.66-4.23,3.42-8.05,2.91-12.52c-0.11-0.91-0.41-1.59-0.84-2.14
	c-0.84-0.47-1.69-0.92-2.57-1.32c-4.96-2.27-10.41-4.24-16.61-3.34c-6.73,0.97-12.89,4.42-16.94,6.92
	c-4.34,2.68-8.59,5.65-12.73,8.56c-0.49,0.34-0.98,0.69-1.46,1.03c-0.38,0.27-0.77,0.54-1.16,0.82c-4.4,3.1-8.92,6.26-13.58,9.11
	c-4.76,2.91-9.68,5.72-14.45,8.43c-4.69,2.67-9.53,5.43-14.2,8.28c-2.7,1.65-5.41,3.4-8.03,5.1c-6.3,4.07-12.81,8.28-19.77,11.48
	c-5.29,2.44-10.67,5.09-15.88,7.65c-4.01,1.97-8.16,4.02-12.23,5.95c-2.72,1.29-5.41,2.91-8.01,4.47c-2.97,1.79-6.05,3.64-9.25,5.06
	c-1.54,0.68-4.02,1.1-6.64,1.55c-5.05,0.86-11.31,1.93-12.28,5.23c4.2,2.42,14.51,1.65,21.39,1.13c1.47-0.11,2.78-0.21,3.86-0.26
	c4.09-0.21,8.03-1.4,11.84-2.55c3.12-0.94,6.31-1.9,9.63-2.34c1.42-0.52,3.06-0.67,4.33-0.78l0.31-0.03c1.33-0.12,2.53-0.6,3.8-1.1
	c1.34-0.53,2.73-1.09,4.29-1.19c0.41-0.03,0.77-0.03,1.12-0.03c0.76,0,1.35,0,2.14-0.28c0.31-0.11,0.62-0.24,0.93-0.37
	c0.54-1.14,1.07-2.59,1.74-4.46c0.31-0.86,0.66-1.81,1.04-2.84c2.65-7.06,10.28-7.78,17.82-8.3c0.23-0.02,0.47-0.03,0.7-0.05
	c0.32-0.02,0.64-0.05,0.96-0.07c2.81-0.19,5.47-0.42,7.76-1.01c10.95-2.83,20.71-5.95,29.83-9.54c1.37-0.54,2.72-1.08,4.07-1.63
	c1.9-1.11,3.68-2.47,4.94-4.5l0.85,0.53c-0.55,0.88-1.19,1.64-1.89,2.31c6.83-2.99,13.17-6.42,18.28-11.22
	c2.08-1.96,3.78-4.35,5.43-6.67c0.35-0.49,0.7-0.98,1.05-1.47l0.35-0.48l0.41,0.43c3.58,3.71,7.45,7.26,11.19,10.69
	c3.42,3.14,6.92,6.35,10.26,9.74C179.98,74.65,180.41,74.39,180.84,74.13z"/>
<path class="st0" d="M188.7,84.64c-0.01-0.09-0.03-0.18-0.04-0.27l-0.03,0.2C188.66,84.59,188.68,84.61,188.7,84.64z"/>
<path class="st0" d="M185.68,84.59c-0.22,0.15-0.49,0.32-0.79,0.51c-0.49,0.3-1.05,0.66-1.55,1.04c-0.1,0.47-0.41,0.84-0.7,1.16
	c-0.26,0.3-0.52,0.58-0.51,0.86c0,0.1,0.02,0.15,0.02,0.16c0.02,0.02,0.1,0.06,0.44,0.1c1.59,0.17,3.6-1.12,5.07-2.06l0.43-0.28
	l-1.91-1.8C186.01,84.38,185.84,84.48,185.68,84.59z"/>
<path class="st0" d="M186.66,83.96c-0.11,0.07-0.22,0.14-0.33,0.21l0.34-0.19C186.67,83.97,186.67,83.97,186.66,83.96z"/>
<path class="st0" d="M179.04,79.11c0.36-0.2,0.72-0.39,1.05-0.6c0.18-0.11,0.36-0.23,0.53-0.35l0,0l1.23-0.82c0,0,0,0,0,0
	c0.04-0.03,0.08-0.06,0.12-0.08l0.16-0.11l0,0c0.8-0.55,1.6-1.1,2.41-1.68c-0.37-0.58-0.75-1.16-1.11-1.74
	c-0.34,0.21-0.69,0.4-1.02,0.62c-0.35,0.22-0.7,0.43-1.06,0.65c-0.19,0.11-0.38,0.24-0.58,0.36l0,0l-0.08,0.05
	c-0.14,0.09-0.28,0.17-0.42,0.26c0.01,0.01,0.01,0.01,0.02,0.02l-0.83,0.57c0,0,0,0-0.01-0.01c-0.11,0.08-0.23,0.16-0.33,0.24
	c-0.15,0.13-0.3,0.26-0.46,0.39c-0.2,0.17-0.4,0.35-0.61,0.52c-0.34,0.28-0.69,0.57-1.01,0.87c-0.41,0.39-0.8,0.84-1.05,1.21
	c-0.19,0.28-0.24,0.61-0.15,0.81c0.07,0.14,0.21,0.22,0.44,0.25c0.25,0.02,0.58-0.08,0.9-0.26
	C177.74,79.83,178.4,79.46,179.04,79.11z"/>
<path class="st0" d="M185.11,83.76c0.22-0.15,0.44-0.29,0.66-0.42l-0.1,0.06l-2.2-1.98c-0.76,0.46-1.52,0.93-2.26,1.45
	c-0.61,0.42-1.23,0.89-1.84,1.39l-0.14,0.11c-0.02,0.01-0.05,0.04-0.08,0.06c-0.19,0.25-0.35,0.53-0.52,0.83l-0.22,0.38
	c-0.27,0.45-0.46,0.95-0.56,1.45c-0.07,0.37,0.11,1,0.39,1.09c0.41,0.14,1.06-0.32,1.54-0.66c0.13-0.09,0.25-0.17,0.36-0.24
	c0.32-0.21,0.62-0.45,0.93-0.69c0.33-0.26,0.68-0.52,1.05-0.75c0.66-0.61,1.49-1.13,2.23-1.59
	C184.64,84.07,184.9,83.91,185.11,83.76z"/>
<path class="st0" d="M184.86,80.59C184.87,80.59,184.87,80.59,184.86,80.59l0.38-0.23C185.12,80.43,184.99,80.51,184.86,80.59z"/>
<path class="st0" d="M178.4,83.75c0.08-0.07,0.17-0.14,0.24-0.19l0.11-0.08c0.63-0.52,1.27-1,1.9-1.44c0.82-0.57,1.66-1.09,2.5-1.6
	l1.3-0.77c0.2-0.12,0.41-0.24,0.61-0.36c0.46-0.27,0.93-0.55,1.39-0.83c-0.29-0.47-0.59-0.93-0.88-1.4
	c-0.16-0.26-0.33-0.52-0.49-0.78c-0.74,0.53-1.49,1.05-2.26,1.58l-1.18,0.79c-0.34,0.23-0.67,0.46-1.02,0.68
	c-0.34,0.22-0.72,0.42-1.1,0.63c-0.41,0.22-0.83,0.45-1.21,0.7l0.01,0.01c-0.46,0.39-0.83,0.89-1.23,1.42
	c-0.24,0.33-0.49,0.66-0.76,0.98c-0.13,0.15-0.28,0.3-0.44,0.46c-0.44,0.43-0.94,0.92-0.87,1.36c0.02,0.14,0.14,0.35,0.26,0.45
	c0.05,0.04,0.17,0.09,0.49,0.07C176.71,85.38,177.69,84.44,178.4,83.75L178.4,83.75z"/>
<path class="st0" d="M183.98,81.11c-0.07,0.04-0.13,0.08-0.2,0.12L183.98,81.11C183.99,81.11,183.99,81.11,183.98,81.11z"/>
<path class="st0" d="M188.69,69.51c2.39-1.34,4.86-2.72,7.18-4.23c0.67-0.44,0.8-0.73,0.77-0.83c-0.13-0.43-1.7-0.91-2.9-0.86
	c-0.76,0.02-1.57,0.17-2.42,0.33c-2.13,0.4-4.54,0.83-6.42-0.87c0.01,0.23,0,0.47,0.01,0.71c0.12,2.24,0.44,4.9,1.44,7.07
	C187.14,70.38,187.92,69.94,188.69,69.51z"/>
<path class="st0" d="M187.08,82.59c0.38-0.2,0.77-0.4,1.15-0.59c-0.04-0.15-0.06-0.26-0.08-0.3c-0.31-0.83-0.73-1.6-1.18-2.36
	c-0.47,0.28-0.95,0.57-1.42,0.84c-0.05,0.03-0.11,0.06-0.16,0.1l1.81,2.25L187.08,82.59z"/>
<path class="st0" d="M240.96,96.62c-0.73-0.46-1.44-0.91-2.14-1.34c-4.77-2.95-9.49-6.11-14.03-9.4c-2.8-2.03-6.17-4.28-9.91-5.66
	c-4.67-1.72-9.34-0.59-13.69,0.89c-2.73,0.93-5.15,1.89-7.35,2.93c0.02,1.61-0.32,3.15-1.04,4.7c7.91,7.71,17.22,15.7,28.55,24.51
	c3.52,2.74,6.64,4.45,10.12,5.57c10.98,3.52,25.9,1.35,33.17-9.61c0.62-0.94,1.12-1.87,1.53-2.81c-0.29,0.01-0.59,0.03-0.88,0.03
	C256.6,106.44,248.05,101.07,240.96,96.62z"/>
<path class="st0" d="M258.43,85.02l-0.93-0.28c-4.49-1.32-8.54-2.53-12.65-3.97c-10-3.51-17.38-7.46-23.25-12.45
	c-0.89-0.75-1.76-1.53-2.63-2.3c-3.13-2.76-6.36-5.62-10.16-7.54c-2.07-1.05-4.6-0.88-7.06-0.73c-0.64,0.04-1.27,0.08-1.88,0.1
	l-0.92,0.03c-3.5,0.1-7.47,0.21-10.63,1.35l-0.23,0.08c-1.04,0.37-2.96,1.06-3.14,1.9c-0.06,0.29,0.12,0.64,0.53,1.03
	c1.53,1.46,3.53,1.09,5.66,0.7c0.86-0.16,1.74-0.32,2.58-0.35c1.04-0.03,3.49,0.32,3.88,1.56c0.21,0.66-0.19,1.32-1.18,1.97
	c-2.35,1.53-4.83,2.92-7.24,4.26c-0.78,0.43-1.57,0.88-2.35,1.33c0.14,0.23,0.27,0.45,0.43,0.66c0.21,0.28,0.43,0.54,0.65,0.8
	c0.44-0.26,0.88-0.5,1.32-0.74c0.93-0.51,1.8-0.99,2.61-1.57l0.59,0.81c-0.86,0.62-1.8,1.14-2.72,1.64
	c-0.37,0.2-0.74,0.41-1.11,0.62c0.62,0.65,1.25,1.28,1.86,1.94c0.89-0.63,1.8-1.27,2.62-1.92l0.62,0.79
	c-0.81,0.64-1.7,1.27-2.58,1.89c0.64,0.77,1.21,1.6,1.63,2.59c0.04,0.1,0.07,0.2,0.11,0.3c0.08-0.04,0.16-0.09,0.24-0.13
	c0.58-0.32,1.25-0.68,1.6-1.04l0.72,0.7c-0.45,0.47-1.15,0.85-1.83,1.22c-0.13,0.07-0.25,0.14-0.37,0.2
	c0.29,0.87,0.47,1.71,0.57,2.53c2.14-0.99,4.47-1.92,7.09-2.81c4.31-1.47,9.39-2.72,14.36-0.88c3.85,1.42,7.29,3.72,10.15,5.79
	c4.52,3.27,9.22,6.42,13.97,9.36c0.7,0.43,1.42,0.88,2.15,1.34c7.33,4.6,16.25,10.18,25.11,9.6c1.12-3.05,1.39-6.18,1.69-9.66
	c0.06-0.71,0.12-1.43,0.19-2.16c0.21-2.2,0.57-4.34,1.06-6.47C266.07,87.32,261.42,85.92,258.43,85.02z"/>
<path class="st0" d="M84.13,88.95c-6.78,0.51-13.37,1.48-15.65,7.56c-0.39,1.03-0.73,1.97-1.04,2.83c-0.49,1.36-0.92,2.52-1.33,3.5
	c1.99-0.98,3.83-2.18,5.32-3.21c3.79-2.62,7.28-5.78,10.65-8.83C82.76,90.18,83.44,89.56,84.13,88.95z"/>
<path class="st0" d="M167.57,20.62c4.87-0.71,9.25,0.27,13.29,1.79c-3.77-3.83,4.68-8.23,7.35-9.59c1.61-0.82,3.19-1.45,4.66-2.36
	c-5.38-4.9-11.55-9.11-18.57-9.45c-8.73-0.42-15.38,7.35-20.91,14.68c-2.93,3.88-5.77,7.93-8.52,11.85
	c-1.63,2.33-3.29,4.69-4.98,7.04c3.39-2.37,6.85-4.73,10.37-6.91C154.38,25.13,160.66,21.62,167.57,20.62z"/>
<path class="st0" d="M64.01,104.8c-0.88,0.29-1.59,0.29-2.33,0.29c-0.33,0-0.67,0-1.05,0.02c-1.41,0.1-2.66,0.6-3.99,1.12
	c-0.76,0.3-1.54,0.6-2.35,0.83C60.26,107.37,62.43,107.18,64.01,104.8z"/>
<path class="st0" d="M187.56,83.45c0,0,0.01,0.01,0.01,0.01l0.27-0.16C187.75,83.36,187.66,83.4,187.56,83.45z"/>
<path class="st0" d="M188.44,83.01c-0.18,0.09-0.36,0.18-0.53,0.27l0.7,0.7C188.55,83.64,188.5,83.31,188.44,83.01z"/>
<path class="st0" d="M86.14,88.81c-0.12,0.01-0.24,0.02-0.36,0.02c-0.2,0.18-0.41,0.35-0.61,0.53c-0.81,0.72-1.61,1.45-2.41,2.17
	c-3.4,3.07-6.91,6.25-10.75,8.91c-1.78,1.23-4.06,2.72-6.53,3.79c-2,3.96-4.3,4.23-12.72,3.76c-1.6-0.09-3.18,0.01-4.73,0.22
	c-0.78,0.31-1.45,0.75-1.85,1.39c-0.21,0.33-0.26,0.66-0.16,0.96c0.11,0.34,0.42,0.62,0.84,0.79c0.71,0.28,1.66,0.39,2.57,0.5
	c0.67,0.08,1.35,0.16,1.96,0.31c1.73,0.42,3.59,0.98,5.68,1.72c3.33,1.18,5.7,1.72,8.71,1.23c2.39-0.4,4.85-1.61,7.03-2.67
	l0.33-0.16c0.77-0.38,1.54-0.84,2.29-1.28c1.61-0.96,3.27-1.95,5.18-2.31c0.59-0.11,1.17-0.23,1.76-0.34
	c2.13-0.43,4.34-0.87,6.64-0.88c0.02,0,0.03,0,0.05,0c1.75,0,3.63,0.19,5.91,0.6c0.5,0.09,1.03,0.19,1.57,0.3
	c4.07,0.8,9.13,1.78,12.31-1.04c3.11-2.76,2.49-6.38,1.84-10.23c-0.69-4.05-1.39-8.23,2.26-11.57c2.12-1.94,4.81-3.88,8.2-5.94
	c-8.05,3-16.62,5.66-26.08,8.1C92.4,88.38,89.36,88.59,86.14,88.81z"/>
<path class="st1" d="M273.59,78.91c0.77-1.52,1.57-3.1,2.1-4.73l-0.95-0.31c-0.51,1.56-1.25,3.03-2.04,4.59
	c-0.85,1.68-1.73,3.41-2.29,5.27c-0.24,0.78-0.45,1.57-0.64,2.35c-3.26,0.32-8.03-1.11-11.05-2.01l-0.94-0.28
	c-4.48-1.32-8.52-2.53-12.6-3.96c-9.88-3.46-17.16-7.36-22.93-12.26c-0.88-0.75-1.75-1.52-2.62-2.28c-3.17-2.8-6.46-5.7-10.37-7.69
	c-2.32-1.18-5.11-0.99-7.58-0.83c-0.63,0.04-1.25,0.08-1.84,0.1l-0.92,0.03c-3.58,0.1-7.63,0.21-10.94,1.41l-0.22,0.08
	c-0.86,0.31-1.99,0.71-2.8,1.3c0.32-4.85,1.6-9.71,3.38-14.15c1.43-3.57,3.58-6.9,4.21-10.74c0.26-1.6,0.12-3.04,0.19-4.46
	c4.78,3.91,8.91,8.76,12.94,13.51c1.02,1.2,2.04,2.4,3.06,3.57c7.17,8.24,15.41,15.4,24.49,21.3l0.54-0.84
	c-9.01-5.85-17.18-12.95-24.28-21.12c-1.02-1.17-2.03-2.36-3.05-3.56c-4.21-4.96-8.52-10.02-13.59-14.05
	c0.12-0.7,0.32-1.41,0.69-2.14c1.35-2.59,2.96-5.14,4.01-7.91c0.4-1.05,0.86-1.94,1.2-2.8c0.37,0.38,0.74,0.77,1.1,1.14
	c0.61,0.63,1.2,1.25,1.79,1.86c2.79,2.88,5.68,5.74,8.48,8.51c2.7,2.67,5.48,5.43,8.17,8.2c3.36,3.45,6.04,6.34,8.44,9.11
	c0.39,0.45,0.85,1.08,1.33,1.74c1.66,2.29,3.73,5.15,6.2,5.2c0.02,0,0.04,0,0.06,0c4.37,0,7.32-8.98,7.87-11.39l-0.97-0.22
	c-0.85,3.72-3.74,10.62-6.9,10.62c-0.01,0-0.03,0-0.04,0c-1.97-0.04-3.87-2.67-5.41-4.79c-0.5-0.68-0.96-1.33-1.38-1.81
	c-2.42-2.78-5.11-5.69-8.48-9.15c-2.7-2.77-5.49-5.54-8.19-8.21c-2.79-2.77-5.68-5.63-8.47-8.5c-0.58-0.6-1.18-1.22-1.79-1.85
	c-0.48-0.5-0.96-1-1.46-1.51c0.34-1.25,0.28-2.53-0.72-4.25c-1.68-2.89-2.04-3.18-4.26-1.4c-0.14,0.11-0.29,0.21-0.43,0.32
	c-5.55-5.09-11.97-9.51-19.38-9.87c-9.23-0.45-16.07,7.55-21.76,15.07c-2.94,3.89-5.79,7.95-8.54,11.88
	c-2.18,3.11-4.41,6.28-6.71,9.4c-0.44,0.31-0.89,0.62-1.33,0.93c-4.74,3.35-9.65,6.81-14.68,9.9c-4.74,2.91-9.66,5.71-14.42,8.42
	c-4.69,2.67-9.54,5.43-14.22,8.3c-2.71,1.66-5.43,3.41-8.05,5.11c-6.27,4.05-12.75,8.24-19.65,11.41c-5.3,2.44-10.69,5.09-15.9,7.66
	c-4.01,1.97-8.15,4.01-12.22,5.94c-2.76,1.31-5.48,2.94-8.1,4.52c-2.95,1.77-6,3.61-9.14,5c-1.42,0.63-3.84,1.04-6.41,1.48
	c-5.81,0.99-12.4,2.11-13.17,6.36L0,111.72l0.27,0.18c4.28,2.83,15.13,2.02,22.31,1.48c1.46-0.11,2.77-0.21,3.83-0.26
	c4.21-0.21,8.21-1.42,12.07-2.59c2.36-0.71,4.77-1.44,7.23-1.93c-0.14,0.16-0.28,0.3-0.39,0.48c-0.36,0.58-0.46,1.22-0.26,1.81
	c0.21,0.62,0.72,1.13,1.42,1.41c0.83,0.33,1.84,0.45,2.82,0.56c0.67,0.08,1.29,0.15,1.85,0.28c1.7,0.41,3.52,0.96,5.58,1.69
	c2.19,0.78,4.38,1.46,6.9,1.46c0.74,0,1.5-0.06,2.31-0.19c2.53-0.42,5.07-1.66,7.3-2.76l0.32-0.16c0.81-0.4,1.6-0.87,2.36-1.32
	c1.53-0.91,3.11-1.86,4.85-2.18c0.59-0.11,1.18-0.23,1.77-0.35c2.18-0.44,4.25-0.85,6.44-0.86c1.69-0.02,3.54,0.18,5.78,0.59
	c0.5,0.09,1.02,0.19,1.55,0.3c4.28,0.84,9.62,1.88,13.16-1.27c3.52-3.13,2.83-7.2,2.16-11.14c-0.67-3.96-1.3-7.69,1.95-10.66
	c2.14-1.96,4.88-3.93,8.38-6.03c1.56-0.94,3.22-1.77,4.63-2.46c0.85-0.41,1.7-0.85,2.53-1.33c8.37-3.43,16.24-7.24,22.41-13.04
	c2.16-2.02,3.88-4.46,5.56-6.82c0.23-0.33,0.46-0.65,0.7-0.98c3.48,3.58,7.21,6.99,10.82,10.3c3.38,3.09,6.83,6.27,10.12,9.6
	c-0.09,0.07-0.18,0.12-0.27,0.19c-0.16,0.13-0.31,0.27-0.47,0.4c-0.19,0.17-0.39,0.33-0.59,0.5c-0.37,0.29-0.73,0.6-1.07,0.93
	c-0.46,0.44-0.9,0.95-1.19,1.38c-0.39,0.58-0.47,1.27-0.22,1.8c0.22,0.47,0.66,0.76,1.24,0.81c0.04,0,0.07,0.01,0.11,0.01
	c-0.23,0.31-0.45,0.62-0.7,0.9c-0.11,0.13-0.25,0.26-0.39,0.4c-0.58,0.57-1.3,1.28-1.16,2.22c0.06,0.37,0.3,0.8,0.59,1.05
	c0.37,0.32,0.86,0.33,1.21,0.31c0.45-0.03,0.88-0.18,1.29-0.39c-0.1,0.28-0.19,0.57-0.24,0.86c-0.14,0.72,0.15,1.92,1.04,2.23
	c0.88,0.3,1.78-0.33,2.44-0.78c0.12-0.08,0.22-0.16,0.32-0.22c0.17-0.11,0.33-0.22,0.49-0.34c-0.03,0.12-0.05,0.25-0.05,0.38
	c0,1.1,0.95,1.2,1.35,1.25c1.97,0.21,4.13-1.19,5.72-2.22l0.42-0.27c0.03-0.02,0.05-0.03,0.08-0.05c-0.06,0.14-0.14,0.21-0.27,0.19
	c1.66,0.39,2.45,2.5,3.83,2.76c0.02-0.04,0.04-0.08,0.06-0.12c7.89,7.67,17.16,15.61,28.41,24.36c3.62,2.81,6.83,4.58,10.43,5.73
	c3.24,1.04,6.81,1.6,10.44,1.59c9.07,0,18.48-3.48,23.87-11.6c0.76-1.14,1.35-2.29,1.81-3.45c0.96-0.09,1.92-0.25,2.87-0.49
	l-0.25-0.97c-0.74,0.19-1.49,0.31-2.24,0.41c1.04-3.07,1.32-6.21,1.59-9.47c0.06-0.71,0.12-1.42,0.19-2.15
	c0.22-2.28,0.59-4.49,1.11-6.7c0.35-0.07,0.7-0.15,1.01-0.26l-0.34-0.94c-0.13,0.05-0.26,0.08-0.4,0.12
	c0.16-0.62,0.33-1.24,0.51-1.87C271.9,82.24,272.76,80.55,273.59,78.91z M144.87,27.54c2.75-3.92,5.58-7.97,8.52-11.85
	c5.54-7.32,12.18-15.1,20.91-14.68c7.02,0.34,13.19,4.56,18.57,9.45c-1.47,0.91-3.05,1.54-4.66,2.36
	c-2.67,1.36-11.12,5.75-7.35,9.59c-4.05-1.52-8.43-2.5-13.29-1.79c-6.91,1-13.19,4.51-17.32,7.06c-3.52,2.18-6.98,4.54-10.37,6.91
	C141.58,32.23,143.24,29.87,144.87,27.54z M112.92,85.54c-3.65,3.34-2.95,7.52-2.26,11.57c0.65,3.84,1.27,7.47-1.84,10.23
	c-3.18,2.82-8.24,1.83-12.31,1.04c-0.54-0.11-1.07-0.21-1.57-0.3c-2.28-0.41-4.16-0.6-5.91-0.6c-0.02,0-0.03,0-0.05,0
	c-2.3,0-4.5,0.45-6.64,0.88c-0.58,0.12-1.17,0.23-1.76,0.34c-1.91,0.35-3.57,1.35-5.18,2.31c-0.75,0.45-1.52,0.91-2.29,1.28
	l-0.33,0.16c-2.17,1.07-4.64,2.28-7.03,2.67c-3.01,0.5-5.38-0.05-8.71-1.23c-2.09-0.74-3.95-1.31-5.68-1.72
	c-0.61-0.15-1.3-0.23-1.96-0.31c-0.92-0.11-1.86-0.22-2.57-0.5c-0.42-0.17-0.72-0.45-0.84-0.79c-0.1-0.3-0.04-0.63,0.16-0.96
	c0.4-0.64,1.07-1.08,1.85-1.39c1.55-0.2,3.12-0.31,4.73-0.22c8.42,0.47,10.72,0.2,12.72-3.76c2.46-1.07,4.74-2.55,6.53-3.79
	c3.84-2.66,7.36-5.84,10.75-8.91c0.8-0.73,1.61-1.45,2.41-2.17c0.2-0.18,0.41-0.35,0.61-0.53c0.12-0.01,0.24-0.02,0.36-0.02
	c3.22-0.22,6.26-0.42,8.9-1.1c9.46-2.44,18.04-5.11,26.08-8.1C117.73,81.65,115.04,83.6,112.92,85.54z M54.29,107.07
	c0.81-0.23,1.59-0.53,2.35-0.83c1.33-0.53,2.58-1.03,3.99-1.12c0.38-0.03,0.73-0.02,1.05-0.02c0.74,0,1.45-0.01,2.33-0.29
	C62.43,107.18,60.26,107.37,54.29,107.07z M66.11,102.84c0.41-0.99,0.84-2.15,1.33-3.5c0.31-0.86,0.65-1.8,1.04-2.83
	c2.28-6.08,8.86-7.05,15.65-7.56c-0.68,0.61-1.37,1.23-2.05,1.85c-3.37,3.05-6.86,6.21-10.65,8.83
	C69.94,100.65,68.1,101.86,66.11,102.84z M169.3,65.18c-3.74-3.43-7.61-6.97-11.19-10.69l-0.41-0.43l-0.35,0.48
	c-0.35,0.49-0.7,0.98-1.05,1.47c-1.64,2.31-3.34,4.71-5.43,6.67c-5.11,4.8-11.44,8.23-18.28,11.22c0.69-0.68,1.34-1.43,1.89-2.31
	l-0.85-0.53c-1.26,2.02-3.04,3.39-4.94,4.5c-1.35,0.55-2.7,1.09-4.07,1.63c-9.12,3.59-18.88,6.71-29.83,9.54
	c-2.28,0.59-4.94,0.81-7.76,1.01c-0.32,0.02-0.63,0.05-0.96,0.07c-0.23,0.02-0.47,0.03-0.7,0.05c-7.54,0.52-15.18,1.24-17.82,8.3
	c-0.39,1.03-0.73,1.98-1.04,2.84c-0.68,1.86-1.21,3.32-1.74,4.46c-0.31,0.13-0.62,0.25-0.93,0.37c-0.79,0.28-1.38,0.28-2.14,0.28
	c-0.35,0-0.72,0-1.12,0.03c-1.56,0.11-2.95,0.66-4.29,1.19c-1.27,0.51-2.47,0.99-3.8,1.1l-0.31,0.03c-1.27,0.11-2.91,0.26-4.33,0.78
	c-3.32,0.45-6.52,1.4-9.63,2.34c-3.81,1.15-7.74,2.34-11.84,2.55c-1.07,0.05-2.39,0.15-3.86,0.26c-6.88,0.52-17.19,1.29-21.39-1.13
	c0.97-3.31,7.22-4.37,12.28-5.23c2.62-0.45,5.1-0.87,6.64-1.55c3.2-1.42,6.28-3.27,9.25-5.06c2.6-1.56,5.29-3.18,8.01-4.47
	c4.08-1.93,8.22-3.97,12.23-5.95c5.2-2.56,10.59-5.21,15.88-7.65c6.96-3.2,13.47-7.41,19.77-11.48c2.62-1.69,5.33-3.44,8.03-5.1
	c4.67-2.85,9.51-5.61,14.2-8.28c4.77-2.71,9.69-5.52,14.45-8.43c4.65-2.85,9.18-6.01,13.58-9.11c0.39-0.27,0.78-0.55,1.16-0.82
	c0.48-0.34,0.97-0.68,1.46-1.03c4.14-2.92,8.39-5.88,12.73-8.56c4.05-2.5,10.21-5.94,16.94-6.92c6.2-0.9,11.65,1.08,16.61,3.34
	c0.88,0.4,1.73,0.85,2.57,1.32c0.43,0.54,0.73,1.22,0.84,2.14c0.52,4.46-2.25,8.28-2.91,12.52c-0.72,4.6-2.63,8.91-3.54,13.5
	c-0.73,3.63-2.3,7.86-1.44,11.55c0.59,2.54,1.75,4.75,3.07,6.9c-0.34,0.21-0.69,0.41-1.03,0.62c-0.34,0.22-0.69,0.42-1.03,0.63
	c-0.43,0.25-0.86,0.52-1.28,0.8C176.22,71.54,172.72,68.32,169.3,65.18z M176.28,80.54c-0.22-0.02-0.37-0.1-0.44-0.25
	c-0.1-0.21-0.04-0.54,0.15-0.81c0.25-0.37,0.64-0.82,1.05-1.21c0.32-0.31,0.67-0.6,1.01-0.87c0.21-0.17,0.41-0.34,0.61-0.52
	c0.15-0.13,0.3-0.26,0.46-0.39c0.1-0.09,0.22-0.16,0.33-0.24c0,0,0,0,0.01,0.01l0.83-0.57c-0.01-0.01-0.01-0.01-0.02-0.02
	c0.14-0.09,0.28-0.17,0.42-0.26l0.08-0.05l0,0c0.19-0.12,0.39-0.24,0.58-0.36c0.36-0.21,0.71-0.43,1.06-0.65
	c0.33-0.21,0.68-0.41,1.02-0.62c0.37,0.58,0.74,1.16,1.11,1.74c-0.81,0.58-1.61,1.13-2.41,1.68l0,0l-0.16,0.11
	c-0.04,0.03-0.08,0.06-0.12,0.08c0,0,0,0,0,0l-1.23,0.82l0,0c-0.18,0.12-0.35,0.24-0.53,0.35c-0.33,0.2-0.68,0.4-1.05,0.6
	c-0.65,0.35-1.3,0.72-1.86,1.16C176.85,80.46,176.53,80.56,176.28,80.54z M175.78,85.43c-0.32,0.02-0.44-0.03-0.49-0.07
	c-0.12-0.1-0.24-0.31-0.26-0.45c-0.07-0.44,0.43-0.92,0.87-1.36c0.16-0.16,0.32-0.31,0.44-0.46c0.27-0.31,0.52-0.64,0.76-0.98
	c0.39-0.53,0.76-1.03,1.23-1.42l-0.01-0.01c0.38-0.25,0.8-0.48,1.21-0.7c0.38-0.21,0.76-0.41,1.1-0.63
	c0.35-0.22,0.68-0.45,1.02-0.68l1.18-0.79c0.76-0.52,1.51-1.05,2.26-1.58c0.16,0.26,0.33,0.52,0.49,0.78
	c0.29,0.47,0.59,0.93,0.88,1.4c-0.47,0.28-0.93,0.56-1.39,0.83c-0.2,0.12-0.41,0.24-0.61,0.36l-1.3,0.77
	c-0.84,0.51-1.68,1.03-2.5,1.6c-0.63,0.44-1.27,0.92-1.9,1.44l-0.11,0.08c-0.07,0.05-0.16,0.12-0.24,0.19l0,0
	C177.69,84.44,176.71,85.38,175.78,85.43z M184.9,63.06c1.88,1.7,4.29,1.26,6.42,0.87c0.86-0.16,1.67-0.31,2.42-0.33
	c1.2-0.05,2.76,0.43,2.9,0.86c0.03,0.09-0.09,0.39-0.77,0.83c-2.32,1.51-4.79,2.89-7.18,4.23c-0.77,0.43-1.55,0.88-2.33,1.32
	c-1-2.17-1.32-4.83-1.44-7.07C184.9,63.53,184.91,63.29,184.9,63.06z M181.08,86.59c-0.3,0.24-0.61,0.48-0.93,0.69
	c-0.11,0.07-0.23,0.15-0.36,0.24c-0.48,0.34-1.14,0.79-1.54,0.66c-0.27-0.09-0.46-0.72-0.39-1.09c0.1-0.5,0.29-1,0.56-1.45
	l0.22-0.38c0.17-0.3,0.33-0.58,0.52-0.83c0.03-0.02,0.06-0.05,0.08-0.06l0.14-0.11c0.61-0.5,1.23-0.97,1.84-1.39
	c0.73-0.51,1.49-0.98,2.26-1.45l0,0l0.31-0.19c0.07-0.04,0.13-0.08,0.2-0.12c0,0,0,0,0,0l0.88-0.52c0,0,0,0,0,0
	c0.13-0.08,0.26-0.15,0.38-0.23l0.15-0.09l0,0c0.05-0.03,0.11-0.06,0.16-0.1c0.47-0.27,0.94-0.56,1.42-0.84
	c0.45,0.75,0.87,1.53,1.18,2.36c0.02,0.04,0.04,0.15,0.08,0.3c-0.39,0.19-0.77,0.39-1.15,0.59l-1.31,0.75
	c-0.22,0.14-0.44,0.27-0.66,0.42c-0.21,0.15-0.47,0.31-0.75,0.48c-0.74,0.46-1.57,0.99-2.23,1.59
	C181.77,86.07,181.41,86.33,181.08,86.59z M188.7,84.64c-0.02-0.02-0.04-0.05-0.07-0.07l-0.17,1.27c-0.12,0.08-0.25,0.15-0.38,0.23
	l-0.43,0.28c-1.46,0.94-3.47,2.24-5.07,2.06c-0.33-0.04-0.42-0.08-0.44-0.1c-0.01-0.01-0.02-0.06-0.02-0.16
	c0-0.28,0.25-0.56,0.51-0.86c0.29-0.32,0.6-0.69,0.7-1.16c0.5-0.38,1.06-0.74,1.55-1.04c0.3-0.18,0.57-0.35,0.79-0.51
	c0.16-0.11,0.33-0.21,0.5-0.32l-0.01-0.01l0.16-0.09c0.11-0.07,0.22-0.14,0.33-0.21c0,0,0.01,0.01,0.01,0.01l0.9-0.51
	c0,0-0.01-0.01-0.01-0.01c0.09-0.05,0.19-0.1,0.28-0.14l0.06-0.04l0,0c0.18-0.09,0.36-0.18,0.53-0.27c0.06,0.3,0.11,0.63,0.16,0.97
	l0.1,0.1l-0.04,0.3C188.67,84.46,188.69,84.55,188.7,84.64z M264.66,109.22c-7.27,10.96-22.19,13.13-33.17,9.61
	c-3.48-1.12-6.6-2.83-10.12-5.57c-11.33-8.81-20.64-16.8-28.55-24.51c0.71-1.55,1.06-3.09,1.04-4.7c2.2-1.04,4.62-2.01,7.35-2.93
	c4.35-1.48,9.02-2.61,13.69-0.89c3.73,1.38,7.1,3.63,9.91,5.66c4.54,3.28,9.26,6.44,14.03,9.4c0.7,0.43,1.42,0.88,2.14,1.34
	c7.09,4.45,15.64,9.82,24.35,9.82c0.29,0,0.58-0.01,0.88-0.03C265.77,107.35,265.28,108.29,264.66,109.22z M268.48,93.57
	c-0.07,0.73-0.13,1.45-0.19,2.16c-0.3,3.47-0.57,6.61-1.69,9.66c-8.86,0.58-17.78-5-25.11-9.6c-0.73-0.46-1.45-0.91-2.15-1.34
	c-4.75-2.94-9.45-6.09-13.97-9.36c-2.86-2.06-6.3-4.37-10.15-5.79c-4.97-1.83-10.05-0.58-14.36,0.88c-2.62,0.89-4.96,1.82-7.09,2.81
	c-0.09-0.82-0.28-1.66-0.57-2.53c0.12-0.07,0.24-0.13,0.37-0.2c0.68-0.37,1.38-0.76,1.83-1.22l-0.72-0.7
	c-0.35,0.36-1.01,0.72-1.6,1.04c-0.08,0.05-0.16,0.09-0.24,0.13c-0.04-0.1-0.07-0.2-0.11-0.3c-0.42-0.98-0.99-1.82-1.63-2.59
	c0.88-0.62,1.77-1.25,2.58-1.89l-0.62-0.79c-0.82,0.64-1.73,1.29-2.62,1.92c-0.61-0.66-1.24-1.29-1.86-1.94
	c0.37-0.21,0.74-0.42,1.11-0.62c0.91-0.5,1.86-1.02,2.72-1.64l-0.59-0.81c-0.81,0.58-1.68,1.06-2.61,1.57
	c-0.44,0.24-0.88,0.48-1.32,0.74c-0.22-0.26-0.44-0.52-0.65-0.8c-0.16-0.21-0.29-0.43-0.43-0.66c0.79-0.45,1.58-0.9,2.35-1.33
	c2.41-1.35,4.89-2.74,7.24-4.26c0.99-0.64,1.38-1.3,1.18-1.97c-0.39-1.24-2.85-1.59-3.88-1.56c-0.83,0.02-1.72,0.19-2.58,0.35
	c-2.12,0.4-4.13,0.77-5.66-0.7c-0.41-0.4-0.59-0.74-0.53-1.03c0.18-0.84,2.11-1.53,3.14-1.9l0.23-0.08
	c3.16-1.14,7.12-1.25,10.63-1.35l0.92-0.03c0.61-0.02,1.24-0.06,1.88-0.1c2.45-0.16,4.99-0.33,7.06,0.73
	c3.8,1.93,7.03,4.78,10.16,7.54c0.87,0.77,1.75,1.54,2.63,2.3c5.86,4.99,13.25,8.94,23.25,12.45c4.1,1.44,8.16,2.65,12.65,3.97
	l0.93,0.28c3,0.9,7.65,2.29,11.11,2.07C269.05,89.22,268.69,91.36,268.48,93.57z"/>
<path class="st1" d="M183.47,81.42L183.47,81.42c0.11-0.06,0.21-0.12,0.31-0.19L183.47,81.42z"/>
<path class="st1" d="M185.4,80.27l-0.15,0.09C185.3,80.33,185.35,80.3,185.4,80.27L185.4,80.27z"/>
<path class="st1" d="M188.6,83.97c0.02,0.13,0.04,0.26,0.06,0.39l0.04-0.3L188.6,83.97z"/>
<path class="st1" d="M187.91,83.27l-0.06,0.04C187.87,83.3,187.89,83.29,187.91,83.27L187.91,83.27z"/>
<path class="st1" d="M186.17,84.26L186.17,84.26c0.06-0.03,0.11-0.06,0.16-0.09L186.17,84.26z"/>
</svg>
